<svg width="437" height="437" viewBox="0 0 437 437" fill="none" xmlns="http://www.w3.org/2000/svg">
<g clip-path="url(#clip0)">
<path d="M218.505 437C339.182 437 437.01 380.531 437.01 310.874C437.01 241.216 339.182 184.748 218.505 184.748C97.828 184.748 0 241.216 0 310.874C0 380.531 97.828 437 218.505 437Z" fill="#EBEBEB"/>
<path d="M181.106 380.213C203.295 380.213 221.283 369.83 221.283 357.022C221.283 344.214 203.295 333.832 181.106 333.832C158.917 333.832 140.93 344.214 140.93 357.022C140.93 369.83 158.917 380.213 181.106 380.213Z" fill="#E0E0E0"/>
<path d="M76.5769 366.487C98.7658 366.487 116.753 356.104 116.753 343.296C116.753 330.488 98.7658 320.106 76.5769 320.106C54.388 320.106 36.4004 330.488 36.4004 343.296C36.4004 356.104 54.388 366.487 76.5769 366.487Z" fill="#E0E0E0"/>
<path d="M296.335 414.994C318.524 414.994 336.511 404.611 336.511 391.803C336.511 378.995 318.524 368.613 296.335 368.613C274.146 368.613 256.158 378.995 256.158 391.803C256.158 404.611 274.146 414.994 296.335 414.994Z" fill="#E0E0E0"/>
<path d="M362.209 315.533C362.209 315.533 363.267 291.013 373.54 277.365C383.812 263.716 396.424 261.755 402.667 265.599C407.221 268.395 406.609 276.705 398.715 282.102C390.822 287.499 375.608 301.332 373.229 310.35L362.209 315.533Z" fill="#37474F"/>
<path d="M368.949 311.961C369.032 311.956 369.113 311.935 369.187 311.899C369.262 311.862 369.329 311.812 369.384 311.749C369.439 311.687 369.481 311.615 369.508 311.536C369.535 311.457 369.546 311.374 369.541 311.291C368.492 289.042 387.988 275.171 393.299 272.676C393.433 272.594 393.532 272.466 393.578 272.316C393.623 272.165 393.612 272.004 393.546 271.861C393.48 271.719 393.364 271.605 393.22 271.543C393.076 271.48 392.914 271.472 392.765 271.521C387.309 274.103 367.182 288.402 368.269 311.321C368.279 311.489 368.355 311.646 368.48 311.759C368.606 311.872 368.771 311.93 368.939 311.922L368.949 311.961Z" fill="white"/>
<path d="M367.065 307.787C368.452 307.751 369.781 307.221 370.812 306.292C372.016 304.982 371.909 302.972 372.463 301.283C373.366 298.507 376.104 296.624 378.958 296.032C381.853 295.58 384.811 295.779 387.619 296.614C393.347 298.022 398.852 294.498 404.59 294.915C406.661 294.982 408.674 295.609 410.416 296.731C411.275 297.299 411.979 298.072 412.464 298.98C412.948 299.889 413.199 300.904 413.193 301.934C413.013 303.657 412.166 305.242 410.833 306.35C409.508 307.442 408.046 308.356 406.484 309.068C404.801 309.923 403.124 310.78 401.454 311.641C400.597 312.019 399.804 312.53 399.105 313.155C398.439 313.868 397.937 314.718 397.633 315.645C397.33 316.572 397.232 317.555 397.347 318.523C397.736 320.465 399.289 321.94 399.784 323.843C400.396 326.338 398.872 329.007 396.678 330.356C394.399 331.591 391.797 332.099 389.221 331.813C386.648 331.667 384.104 331.152 381.531 331.104C379.791 330.982 378.051 331.362 376.521 332.201C374.794 333.451 373.55 335.257 372.997 337.317C372.663 338.637 372.133 339.9 371.424 341.063C370.541 342.172 369.353 342.999 368.006 343.442C365.417 344.391 362.576 344.391 359.987 343.442C357.86 342.626 356.821 340.229 356.035 338.151C355.24 335.976 354.858 333.672 354.909 331.356C355.04 325.407 356.385 319.547 358.86 314.136C360.055 311.651 361.773 309.166 364.414 308.311C365.282 308.066 366.168 307.891 367.065 307.787Z" fill="#455A64"/>
<path d="M361.521 334.463C361.639 334.463 361.753 334.427 361.849 334.359C361.945 334.291 362.017 334.195 362.055 334.084C368.046 316.912 396.397 301.972 406.718 300.254C406.866 300.23 406.998 300.148 407.085 300.026C407.173 299.904 407.208 299.752 407.184 299.604C407.159 299.456 407.077 299.324 406.955 299.236C406.833 299.149 406.681 299.113 406.533 299.138C395.97 300.885 367.065 316.155 360.949 333.705C360.923 333.776 360.911 333.851 360.915 333.926C360.918 334.002 360.937 334.075 360.97 334.143C361.002 334.211 361.048 334.272 361.104 334.322C361.161 334.371 361.227 334.41 361.298 334.433C361.37 334.457 361.446 334.467 361.521 334.463Z" fill="white"/>
<path d="M386.997 325.047C387.083 325.048 387.168 325.03 387.245 324.992C387.323 324.955 387.391 324.901 387.443 324.833C387.489 324.774 387.523 324.706 387.542 324.634C387.562 324.562 387.567 324.487 387.557 324.413C387.547 324.339 387.522 324.267 387.485 324.203C387.447 324.138 387.396 324.082 387.337 324.037C382.706 320.833 377.229 319.073 371.598 318.979C371.46 318.998 371.334 319.065 371.242 319.17C371.15 319.274 371.1 319.408 371.1 319.547C371.1 319.686 371.15 319.821 371.242 319.925C371.334 320.03 371.46 320.097 371.598 320.115C376.987 320.246 382.224 321.931 386.676 324.969C386.774 325.025 386.885 325.052 386.997 325.047Z" fill="white"/>
<path d="M361.238 347.742C361.848 347.327 362.353 346.774 362.71 346.128C363.068 345.483 363.268 344.762 363.296 344.024V141.735C363.255 140.976 363.036 140.236 362.656 139.577C362.277 138.918 361.747 138.357 361.111 137.94L123.043 0.533873C122.41 0.135876 121.681 -0.0820054 120.934 -0.0962948C120.186 -0.110584 119.449 0.07926 118.802 0.452783C118.155 0.826305 117.622 1.36935 117.26 2.02339C116.899 2.67743 116.723 3.41768 116.751 4.16438V206.463C116.792 207.223 117.011 207.962 117.391 208.621C117.77 209.28 118.299 209.841 118.936 210.259L356.975 347.664C357.63 348.012 358.357 348.2 359.097 348.213C359.838 348.227 360.571 348.065 361.238 347.742Z" fill="#455A64"/>
<path d="M357.355 347.849C357.355 347.849 357.414 347.849 357.453 347.849C357.517 347.883 357.586 347.909 357.656 347.926H357.822C357.919 347.96 358.02 347.983 358.123 347.994C358.188 348.02 358.257 348.036 358.326 348.043L358.666 348.092C359.529 348.208 360.408 348.055 361.181 347.655C361.791 347.242 362.294 346.691 362.65 346.046C363.006 345.402 363.205 344.682 363.23 343.947V167.576L359.103 169.954V346.393C359.103 347.363 358.608 347.965 357.889 347.965C357.793 347.979 357.695 347.979 357.598 347.965H357.55C357.478 347.939 357.412 347.899 357.355 347.849Z" fill="#27DEBF"/>
<path opacity="0.81" d="M357.355 347.849C357.355 347.849 357.414 347.849 357.453 347.849C357.517 347.883 357.586 347.909 357.656 347.926H357.822C357.919 347.96 358.02 347.983 358.123 347.994C358.188 348.02 358.257 348.036 358.326 348.043L358.666 348.092C359.529 348.208 360.408 348.055 361.181 347.655C361.791 347.242 362.294 346.691 362.65 346.046C363.006 345.402 363.205 344.682 363.23 343.947V167.576L359.103 169.954V346.393C359.103 347.363 358.608 347.965 357.889 347.965C357.793 347.979 357.695 347.979 357.598 347.965H357.55C357.478 347.939 357.412 347.899 357.355 347.849Z" fill="#E0E0E0"/>
<path d="M359.17 170.051L363.287 167.673V206.842L359.17 209.239V170.051Z" fill="#27DEBF"/>
<path opacity="0.15" d="M359.17 170.051L363.287 167.673V206.842L359.17 209.239V170.051Z" fill="black"/>
<path d="M358.529 141.949C358.918 142.603 359.135 143.344 359.16 144.104V170.042L363.287 167.663V141.735C363.296 141.648 363.296 141.56 363.287 141.473C363.268 141.29 363.239 141.109 363.199 140.93C363.083 140.453 362.9 139.996 362.656 139.571L358.529 141.949Z" fill="#263238"/>
<path d="M116.752 4.1741V15.881L291.235 116.594C292.439 117.292 293.43 116.72 293.43 115.332V110.895C293.43 109.507 294.401 108.954 295.624 109.633L348.753 140.318C349.392 140.733 349.925 141.293 350.308 141.952C350.691 142.612 350.913 143.352 350.957 144.114V148.54C350.998 149.3 351.217 150.039 351.596 150.698C351.976 151.357 352.505 151.918 353.141 152.336L359.161 155.811V144.162C359.12 143.402 358.9 142.663 358.521 142.004C358.141 141.345 357.612 140.784 356.976 140.367L118.937 2.91216C117.733 2.21324 116.752 2.77625 116.752 4.1741Z" fill="#37474F"/>
<path d="M116.742 206.473C116.786 207.231 117.007 207.969 117.388 208.627C117.77 209.284 118.3 209.843 118.936 210.259L356.976 347.664C358.18 348.354 359.161 347.791 359.161 346.393V155.85L353.141 152.374C351.937 151.675 349.966 141.056 348.753 140.357L296.507 110.196C295.294 109.498 292.439 117.341 291.235 116.642L116.752 15.881V206.473H116.742Z" fill="#27DEBF"/>
<path opacity="0.9" d="M116.742 206.473C116.786 207.231 117.007 207.969 117.388 208.627C117.77 209.284 118.3 209.843 118.936 210.259L356.976 347.664C358.18 348.354 359.161 347.791 359.161 346.393V155.85L353.141 152.374C351.937 151.675 349.966 141.056 348.753 140.357L296.507 110.196C295.294 109.498 292.439 117.341 291.235 116.642L116.752 15.881V206.473H116.742Z" fill="white"/>
<g opacity="0.4">
<path opacity="0.4" d="M117.723 17.5603L290.75 117.428C290.948 117.542 291.172 117.602 291.4 117.603C292.527 117.603 293.342 116.322 294.711 113.856C295.203 112.93 295.761 112.041 296.381 111.196L348.199 141.104C348.969 142.878 349.58 144.717 350.024 146.599C351.248 150.967 351.791 152.666 352.656 153.161L358.19 156.364V346.393C358.19 346.5 358.19 346.985 357.957 346.985C357.78 346.976 357.609 346.919 357.462 346.82L119.422 209.424C118.936 209.098 118.53 208.667 118.234 208.163C117.938 207.659 117.76 207.094 117.713 206.512V17.5603H117.723ZM116.742 15.881V206.473C116.786 207.231 117.007 207.969 117.388 208.627C117.77 209.284 118.3 209.843 118.936 210.259L356.976 347.664C357.271 347.84 357.604 347.94 357.947 347.956C358.666 347.956 359.151 347.383 359.151 346.393V155.85L353.131 152.374C351.927 151.675 349.956 141.056 348.743 140.357L296.498 110.196C296.444 110.182 296.387 110.182 296.333 110.196C295.1 110.196 292.614 116.729 291.391 116.729C291.337 116.743 291.28 116.743 291.226 116.729L116.752 15.881H116.742Z" fill="#27DEBF"/>
</g>
<path d="M359.17 170.051V209.239L116.752 69.329V30.1215L359.17 170.051Z" fill="#27DEBF"/>
<path d="M116.752 15.881V30.1215L359.161 170.041V155.85L354.665 153.248C353.462 152.549 353.054 151.481 352.481 149.452L350.957 144.152C350.471 142.308 349.986 141.056 348.753 140.357L296.507 110.196C295.294 109.497 294.352 109.42 293.43 110.944L291.556 114.341C290.867 115.535 290.517 116.234 289.313 115.535L116.752 15.881Z" fill="#F0F0F0"/>
<path d="M127.025 11.5127C125.501 10.639 124.268 11.3477 124.268 13.1047C124.319 14.0614 124.596 14.9924 125.075 15.8222C125.554 16.652 126.222 17.3572 127.025 17.8806C128.54 18.7543 129.782 18.0456 129.782 16.2886C129.728 15.3325 129.451 14.4023 128.972 13.5729C128.493 12.7434 127.826 12.0378 127.025 11.5127Z" fill="#27DEBF"/>
<path d="M136.957 17.2303C135.432 16.3567 134.199 17.0653 134.199 18.8223C134.251 19.779 134.528 20.71 135.007 21.5398C135.486 22.3696 136.154 23.0749 136.957 23.5983C138.471 24.4719 139.704 23.7633 139.704 22.0063C139.652 21.0508 139.376 20.1209 138.899 19.2914C138.422 18.4619 137.756 17.756 136.957 17.2303Z" fill="#27DEBF"/>
<path d="M146.871 22.9479C145.346 22.0742 144.113 22.7828 144.113 24.5398C144.165 25.4966 144.442 26.4276 144.921 27.2574C145.4 28.0872 146.068 28.7924 146.871 29.3158C148.385 30.1895 149.618 29.4808 149.618 27.7238C149.566 26.7683 149.29 25.8384 148.813 25.0089C148.336 24.1795 147.67 23.4735 146.871 22.9479Z" fill="#27DEBF"/>
<path opacity="0.5" d="M349.122 156.82L352.559 158.762L351.248 156.248C351.196 156.152 351.169 156.045 351.169 155.937C351.169 155.828 351.196 155.722 351.248 155.626C351.355 155.51 351.529 155.626 351.636 155.811L353.51 159.402C353.531 159.446 353.547 159.492 353.559 159.538C353.563 159.6 353.563 159.661 353.559 159.723C353.565 159.778 353.565 159.833 353.559 159.888C353.548 159.917 353.532 159.943 353.51 159.965L351.636 161.402C351.61 161.418 351.58 161.427 351.549 161.427C351.518 161.427 351.488 161.418 351.461 161.402C351.366 161.333 351.292 161.239 351.248 161.13C351.151 160.897 351.161 160.635 351.248 160.548L352.559 159.577L349.122 157.636C349.032 157.566 348.959 157.476 348.91 157.373C348.861 157.27 348.837 157.157 348.84 157.044C348.84 156.82 348.966 156.743 349.122 156.82Z" fill="#455A64"/>
<path opacity="0.5" d="M346.247 155.17L342.81 153.229L344.121 152.258C344.238 152.171 344.247 151.908 344.121 151.675C343.995 151.442 343.84 151.316 343.723 151.404L341.859 152.84C341.838 152.859 341.821 152.882 341.81 152.908C341.8 152.96 341.8 153.012 341.81 153.064C341.8 153.125 341.8 153.187 341.81 153.248C341.81 153.248 341.81 153.248 341.81 153.297C341.822 153.343 341.838 153.389 341.859 153.432L343.723 157.014C343.763 157.101 343.827 157.175 343.908 157.228C343.937 157.253 343.975 157.267 344.014 157.267C344.053 157.267 344.091 157.253 344.121 157.228C344.173 157.133 344.2 157.026 344.2 156.917C344.2 156.809 344.173 156.702 344.121 156.607L342.81 154.083L346.247 156.073C346.403 156.16 346.519 156.073 346.519 155.801C346.53 155.682 346.511 155.561 346.464 155.451C346.416 155.341 346.342 155.244 346.247 155.17Z" fill="#455A64"/>
<path opacity="0.5" d="M334.965 145.269C334.965 145.065 335.169 145.094 335.266 145.317L335.732 146.472C336.538 146.385 337.509 147.162 338.169 148.559C339.014 150.355 339.014 152.442 338.169 153.306C337.963 153.499 337.696 153.615 337.415 153.633C337.133 153.65 336.854 153.569 336.625 153.403C335.934 152.948 335.396 152.295 335.081 151.53C334.965 151.297 334.965 151.025 335.081 150.928C335.198 150.831 335.363 150.928 335.47 151.151C336.101 152.491 337.14 153.093 337.771 152.481C338.402 151.87 338.412 150.278 337.771 148.928C337.324 147.958 336.674 147.404 336.101 147.375L336.46 148.239C336.548 148.462 336.46 148.676 336.324 148.579L334.916 147.666C334.863 147.618 334.821 147.558 334.794 147.49C334.767 147.423 334.756 147.35 334.761 147.278L334.965 145.269Z" fill="#455A64"/>
<path opacity="0.5" d="M298.013 116.652L296.761 113.992C296.687 113.867 296.648 113.724 296.648 113.579C296.648 113.434 296.687 113.292 296.761 113.167C296.916 113.031 297.149 113.167 297.304 113.477L298.557 116.128L299.809 114.924C299.955 114.778 300.198 114.924 300.343 115.234C300.417 115.36 300.455 115.502 300.455 115.647C300.455 115.792 300.417 115.934 300.343 116.06L299.1 117.263L300.353 119.923C300.426 120.048 300.465 120.191 300.465 120.336C300.465 120.481 300.426 120.623 300.353 120.748C300.315 120.78 300.267 120.797 300.217 120.797C300.167 120.797 300.119 120.78 300.081 120.748C299.961 120.673 299.868 120.561 299.819 120.428L298.566 117.768L297.304 118.962C297.266 118.994 297.218 119.011 297.168 119.011C297.119 119.011 297.071 118.994 297.032 118.962C296.911 118.885 296.817 118.774 296.761 118.642C296.687 118.517 296.648 118.374 296.648 118.229C296.648 118.084 296.687 117.942 296.761 117.817L298.013 116.652Z" fill="#455A64"/>
<path d="M330.402 148.53V144.104C330.36 143.347 330.142 142.61 329.764 141.953C329.386 141.295 328.86 140.735 328.227 140.318L131.276 26.7433C130.063 26.0444 129.082 26.6074 129.082 28.0053V32.3735C129.124 33.1339 129.345 33.8737 129.726 34.5331C130.107 35.1925 130.638 35.7529 131.276 36.1691L328.227 149.802C329.421 150.501 330.402 149.928 330.402 148.53Z" fill="white"/>
<path d="M133.801 36.1691L132.684 34.6741L131.539 34.8198C131.457 34.8283 131.375 34.8168 131.298 34.7864C131.222 34.7559 131.155 34.7074 131.102 34.645C131.009 34.5532 130.939 34.4419 130.895 34.3193C130.852 34.1967 130.836 34.0659 130.849 33.9364L131.072 32.3541C131.083 32.3028 131.083 32.2501 131.072 32.1988L130.102 30.4515C130.023 30.3356 129.98 30.1986 129.98 30.0584C129.98 29.9181 130.023 29.7811 130.102 29.6652C130.16 29.5998 130.237 29.5543 130.322 29.5352C130.408 29.516 130.497 29.5242 130.577 29.5584L131.742 30.005L132.267 28.8983C132.3 28.8195 132.358 28.7529 132.431 28.7078C132.504 28.6626 132.589 28.641 132.674 28.646C132.814 28.6714 132.943 28.7375 133.045 28.836C133.147 28.9344 133.217 29.0608 133.247 29.1993L133.82 31.0825C133.834 31.1386 133.865 31.1893 133.908 31.2281L135.199 32.1988C135.3 32.2845 135.382 32.3916 135.437 32.5125C135.493 32.6333 135.521 32.7648 135.519 32.8977C135.523 32.9764 135.508 33.0549 135.474 33.1261C135.44 33.1972 135.389 33.2589 135.325 33.3054L134.442 33.9461L134.665 35.7808C134.691 35.894 134.677 36.0129 134.626 36.1173C134.575 36.2216 134.489 36.3051 134.383 36.3535C134.332 36.3645 134.279 36.3645 134.228 36.3535C134.148 36.3538 134.069 36.3375 133.995 36.3058C133.922 36.274 133.855 36.2275 133.801 36.1691ZM134.859 32.6745L133.577 31.7037C133.439 31.5906 133.337 31.4384 133.286 31.2669L132.713 29.3837L132.238 30.3544C132.216 30.4058 132.185 30.4524 132.146 30.4916C132.106 30.5307 132.059 30.5616 132.008 30.5824C131.956 30.6032 131.901 30.6135 131.846 30.6127C131.79 30.6119 131.735 30.6 131.684 30.5777L130.626 30.17L131.548 31.9173C131.633 32.0712 131.67 32.2469 131.655 32.4221L131.432 34.0043C131.432 34.082 131.49 34.2179 131.432 34.2373L132.587 34.0917C132.684 34.0863 132.78 34.1058 132.866 34.1483C132.953 34.1908 133.027 34.2549 133.082 34.3344L134.053 35.5575L133.869 34.0432C133.852 33.9511 133.859 33.8563 133.89 33.7678C133.92 33.6794 133.973 33.6004 134.043 33.5384L134.937 32.8977C134.938 32.8165 134.91 32.7376 134.859 32.6745Z" fill="#E0E0E0"/>
<g opacity="0.5">
<path opacity="0.5" d="M126.489 26.1415C126.658 26.1455 126.824 26.0928 126.959 25.9919C127.095 25.891 127.193 25.7476 127.238 25.5846C127.282 25.4217 127.271 25.2484 127.206 25.0925C127.141 24.9366 127.025 24.807 126.878 24.7243L120.713 21.1714C120.626 21.1177 120.53 21.0819 120.43 21.0661C120.329 21.0503 120.227 21.0548 120.128 21.0795C120.03 21.1041 119.937 21.1483 119.856 21.2094C119.775 21.2705 119.707 21.3473 119.656 21.4353C119.605 21.5232 119.573 21.6204 119.56 21.7212C119.548 21.822 119.556 21.9243 119.584 22.0219C119.612 22.1196 119.659 22.2106 119.723 22.2897C119.787 22.3687 119.866 22.4341 119.955 22.4819L126.111 26.0445C126.227 26.1082 126.357 26.1415 126.489 26.1415Z" fill="#455A64"/>
<path opacity="0.5" d="M126.488 29.7041C126.657 29.7081 126.823 29.6554 126.958 29.5545C127.094 29.4536 127.192 29.3102 127.237 29.1473C127.281 28.9843 127.27 28.811 127.205 28.6551C127.14 28.4992 127.024 28.3696 126.877 28.2869L120.711 24.7243C120.536 24.6255 120.329 24.5996 120.134 24.6523C119.94 24.705 119.774 24.832 119.673 25.0058C119.622 25.0924 119.59 25.1881 119.577 25.2873C119.564 25.3865 119.57 25.4873 119.597 25.5839C119.623 25.6805 119.668 25.7709 119.729 25.85C119.791 25.9291 119.867 25.9952 119.954 26.0445L126.11 29.5974C126.225 29.6641 126.355 29.7008 126.488 29.7041Z" fill="#455A64"/>
<path opacity="0.5" d="M126.49 33.2569C126.623 33.2577 126.755 33.2231 126.871 33.1566C126.987 33.0901 127.083 32.9941 127.15 32.8783C127.2 32.7931 127.233 32.6987 127.247 32.6006C127.26 32.5026 127.254 32.4028 127.229 32.307C127.204 32.2113 127.16 32.1215 127.099 32.043C127.039 31.9644 126.964 31.8986 126.878 31.8494L120.713 28.2868C120.626 28.2366 120.53 28.204 120.431 28.191C120.332 28.178 120.231 28.1848 120.134 28.2109C120.038 28.2371 119.947 28.2822 119.868 28.3435C119.789 28.4049 119.723 28.4813 119.674 28.5683C119.622 28.6538 119.589 28.7488 119.575 28.8476C119.562 28.9463 119.568 29.0468 119.595 29.143C119.621 29.2392 119.666 29.329 119.728 29.4071C119.79 29.4852 119.868 29.5499 119.955 29.5973L126.111 33.1599C126.227 33.2236 126.357 33.2569 126.49 33.2569Z" fill="#455A64"/>
</g>
<path d="M359.17 155.811V170.051L363.287 167.673V153.442L359.17 155.811Z" fill="#E0E0E0"/>
<path opacity="0.1" d="M348.645 218.481L281.604 179.778V289.052L348.84 327.638L348.645 218.481Z" fill="#27DEBF"/>
<path opacity="0.15" d="M266.827 173.254L185.95 126.572C184.319 125.602 183.037 126.339 183.037 128.155C183.098 129.159 183.393 130.135 183.899 131.005C184.405 131.875 185.107 132.614 185.95 133.164L266.847 180.37C268.468 181.341 269.759 180.564 269.759 178.691V178.351C269.706 177.331 269.413 176.337 268.903 175.452C268.394 174.566 267.682 173.814 266.827 173.254Z" fill="#27DEBF"/>
<path opacity="0.1" d="M267.67 187.398L133.839 110.148C132.674 109.478 131.732 109.954 131.732 111.206C131.784 111.913 132.001 112.598 132.367 113.206C132.733 113.813 133.238 114.325 133.839 114.701L267.67 191.951C268.826 192.621 269.768 192.145 269.768 190.893C269.717 190.187 269.5 189.502 269.136 188.895C268.772 188.288 268.27 187.775 267.67 187.398Z" fill="#27DEBF"/>
<path opacity="0.1" d="M267.67 196.542L133.839 119.292C132.674 118.622 131.732 119.098 131.732 120.35C131.784 121.057 132.001 121.742 132.367 122.35C132.733 122.957 133.238 123.469 133.839 123.845L267.67 201.095C268.826 201.765 269.768 201.289 269.768 200.027C269.715 199.323 269.498 198.64 269.134 198.035C268.77 197.43 268.268 196.919 267.67 196.542Z" fill="#27DEBF"/>
<path opacity="0.1" d="M267.67 205.677L133.839 128.427C132.674 127.757 131.732 128.233 131.732 129.494C131.785 130.2 132.003 130.883 132.369 131.489C132.736 132.094 133.239 132.605 133.839 132.979L267.67 210.21C268.826 210.88 269.768 210.404 269.768 209.142C269.711 208.442 269.492 207.764 269.128 207.162C268.764 206.561 268.265 206.052 267.67 205.677Z" fill="#27DEBF"/>
<path opacity="0.1" d="M267.67 214.821L133.839 137.571C132.674 136.901 131.732 137.377 131.732 138.629C131.784 139.336 132.001 140.021 132.367 140.628C132.733 141.236 133.238 141.748 133.839 142.123L267.67 219.374C268.826 220.043 269.768 219.568 269.768 218.315C269.717 217.609 269.5 216.925 269.136 216.318C268.772 215.711 268.27 215.198 267.67 214.821Z" fill="#27DEBF"/>
<path opacity="0.1" d="M267.671 223.965L174.298 169.605C173.133 168.935 172.191 169.411 172.191 170.672C172.244 171.378 172.462 172.061 172.828 172.667C173.195 173.272 173.698 173.783 174.298 174.157L267.671 228.518C268.827 229.188 269.769 228.712 269.769 227.45C269.716 226.746 269.499 226.063 269.135 225.458C268.771 224.853 268.269 224.341 267.671 223.965Z" fill="#27DEBF"/>
<path opacity="0.1" d="M267.67 242.244L133.839 164.994C132.674 164.324 131.732 164.8 131.732 166.052C131.784 166.759 132.001 167.444 132.367 168.051C132.733 168.659 133.238 169.171 133.839 169.546L267.67 246.797C268.826 247.466 269.768 246.991 269.768 245.738C269.717 245.032 269.5 244.348 269.136 243.741C268.772 243.134 268.27 242.621 267.67 242.244Z" fill="#27DEBF"/>
<path opacity="0.1" d="M267.67 251.388L133.839 174.138C132.674 173.468 131.732 173.944 131.732 175.196C131.784 175.903 132.001 176.588 132.367 177.196C132.733 177.803 133.238 178.315 133.839 178.691L267.67 255.941C268.826 256.611 269.768 256.135 269.768 254.873C269.715 254.169 269.498 253.486 269.134 252.881C268.77 252.276 268.268 251.764 267.67 251.388Z" fill="#27DEBF"/>
<path opacity="0.1" d="M267.67 260.523L133.839 183.273C132.674 182.603 131.732 183.078 131.732 184.34C131.785 185.046 132.003 185.729 132.369 186.334C132.736 186.94 133.239 187.451 133.839 187.825L267.67 265.085C268.826 265.755 269.768 265.279 269.768 264.017C269.715 263.312 269.498 262.628 269.134 262.021C268.77 261.414 268.269 260.901 267.67 260.523Z" fill="#27DEBF"/>
<path opacity="0.1" d="M267.671 269.667L218.513 240.972C217.348 240.302 216.406 240.778 216.406 242.04C216.459 242.746 216.677 243.429 217.043 244.034C217.409 244.64 217.913 245.15 218.513 245.525L267.68 274.219C268.836 274.889 269.778 274.414 269.778 273.161C269.725 272.454 269.508 271.77 269.142 271.162C268.776 270.555 268.272 270.043 267.671 269.667Z" fill="#27DEBF"/>
<path d="M88.8282 217.199C81.7211 194.116 74.7887 178.904 81.8473 174.196C88.4204 175.419 91.3623 178.671 92.7507 187.33C94.2168 196.406 97.2654 209.065 99.0422 216.364C100.578 222.465 102.776 228.379 105.596 234.003C106.024 234.779 106.711 235.381 107.538 235.701C109.732 236.565 110.781 237.643 112.577 238.963C113.975 239.934 115.004 240.07 114.936 240.487C114.821 240.955 114.527 241.36 114.116 241.614C113.706 241.868 113.213 241.951 112.742 241.846C111.687 241.647 110.66 241.321 109.683 240.875C110.539 243.009 111.866 244.92 113.567 246.467C117.004 249.379 116.48 252.223 110.955 252.553C109.014 252.67 104.373 250.864 100.11 243.613C98.6685 240.912 97.4036 238.12 96.3237 235.255C93.2653 227.819 90.2554 221.859 88.8282 217.199Z" fill="#FFA8A7"/>
<path d="M80.5859 173.924C80.5859 173.924 86.0619 173.643 89.3824 177.303C92.703 180.962 96.577 202.823 96.577 202.823C96.577 202.823 92.936 207.812 83.3628 205.735L80.5859 173.924Z" fill="#27DEBF"/>
<path opacity="0.3" d="M80.5859 173.924C80.5859 173.924 86.0619 173.643 89.3824 177.303C92.703 180.962 96.577 202.823 96.577 202.823C96.577 202.823 92.936 207.812 83.3628 205.735L80.5859 173.924Z" fill="black"/>
<path d="M62.3225 329.017H54.9727V342.122H62.3225V329.017Z" fill="#FFA8A7"/>
<path d="M80.459 328.318L87.8088 328.58L88.1778 314.708L80.459 314.446V328.318Z" fill="#FFA8A7"/>
<path d="M53.9446 215.549C53.9446 222.859 55.0126 281.684 55.0126 281.684C54.8476 283.791 52.9543 287.674 53.3621 295.75C53.9155 306.719 54.6631 335.55 54.6631 335.55C55.9243 336.199 57.317 336.552 58.7353 336.583C60.1536 336.613 61.5601 336.319 62.8479 335.724C62.8479 335.724 69.7997 295.779 71.1202 284.897C72.2658 275.413 74.2174 243.448 74.2174 243.448L78.1981 280.607C77.3507 284.605 77.047 288.7 77.2952 292.78C77.635 297.808 79.9943 324.008 79.9943 324.008C81.2662 324.758 82.6925 325.208 84.1647 325.324C85.6368 325.441 87.1161 325.219 88.4899 324.678C88.4899 324.678 92.6648 285.227 92.7522 280.607C92.8493 275.346 90.3055 215.462 90.3055 215.462L53.9446 215.549Z" fill="#37474F"/>
<path d="M62.3231 338.345V337.249C63.0318 337.569 64.663 344.044 67.5757 346.839C69.8962 349.033 73.0614 351.576 73.8673 354.032C74.6731 356.488 69.4593 358.003 67.2942 357.605C64.7795 357.139 60.4201 355.294 59.3229 353.576C58.2258 351.858 57.7112 349.344 56.818 348.092C55.9247 346.839 53.9052 345.441 53.4004 343.985C53.256 342.631 53.3983 341.262 53.8178 339.967C54.1577 338.617 54.5266 337.122 54.9732 337.249V338.083C56.0064 338.94 57.3108 339.401 58.653 339.384C59.721 339.413 62.3328 339.19 62.3231 338.345Z" fill="#263238"/>
<path d="M87.8867 326.211C88.2654 326.211 88.5761 326.784 89.4208 327.736C90.6702 329.054 92.1345 330.15 93.7511 330.978C96.4988 332.414 101.849 334.618 104.276 335.754C105.79 336.462 105.713 338.365 104.15 339.452C102.586 340.539 98.8096 341.316 94.2754 340.258C91.8093 339.685 88.5955 337.346 86.508 337.433C84.4206 337.52 80.6825 337.54 79.1582 336.462C77.6339 335.385 78.2553 333.084 78.6825 331.104C79.1485 328.949 79.731 325.581 80.4107 325.726V326.474C81.2942 327.862 85.8575 328.415 87.7994 327.444L87.8867 326.211Z" fill="#263238"/>
<path d="M74.2168 243.457C78.0389 242.226 81.5359 240.152 84.4503 237.39C84.4503 237.39 82.5084 241.273 76.6053 244.826L77.8577 278.005L74.2168 243.457Z" fill="#263238"/>
<path d="M57.7592 175.672C57.7592 175.672 52.0114 176.206 52.4192 187.155L53.6911 204.628V230.838C59.0991 236.963 83.0613 236.507 91.2752 230.343C91.2752 230.343 90.3043 199.348 89.7897 187.417C89.3917 178.943 87.4401 174.672 79.1097 173.74L68.8568 174.187L57.7592 175.672Z" fill="#27DEBF"/>
<path opacity="0.3" d="M74.0996 181.428L75.4201 190.631L78.4978 190.572L75.022 191.116L74.0996 181.428Z" fill="black"/>
<path d="M66.43 150.996C66.3702 153.96 67.4903 156.827 69.544 158.966C71.5978 161.105 74.417 162.341 77.382 162.402C83.4211 162.402 88.0621 157.286 88.3242 151.006C88.8097 139.872 83.4696 139.6 77.382 139.6C74.4187 139.661 71.601 140.895 69.5475 143.032C67.494 145.169 66.3728 148.033 66.43 150.996Z" fill="#263238"/>
<path d="M60.1953 156.636C60.1953 156.636 61.875 164.848 62.5449 166.197C62.9806 167.023 63.7234 167.643 64.613 167.925L64.4965 162.15L60.1953 156.636Z" fill="#263238"/>
<path d="M62.3039 144.871C62.3039 144.871 61.0999 144.57 59.8183 146.569C58.7212 148.278 58.4785 152.122 60.197 156.636L63.3622 157.014L62.3039 144.871Z" fill="#263238"/>
<path d="M64.3025 157.014C63.6714 157.412 62.7685 156.141 61.982 155.287C61.1956 154.432 58.6518 153.277 57.3799 156.063C56.108 158.849 58.4964 162.674 60.5062 163.334C63.9724 164.47 64.4967 162.15 64.4967 162.15L64.7589 175.157C69.3513 182.273 79.7692 182.011 76.0215 174.817V170.857C77.5641 171.113 79.1304 171.198 80.6916 171.109C83.2354 170.692 84.8471 168.605 85.6142 165.731C86.8569 161.121 87.323 157.403 86.2744 148.326C85.1093 138.377 74.0117 138.289 68.0211 142.259C62.0306 146.23 64.3025 157.014 64.3025 157.014Z" fill="#FFA8A7"/>
<path d="M64.7013 172.245C65.771 174.433 67.3091 176.358 69.2063 177.885C70.8147 179.073 72.681 179.865 74.6532 180.195C73.0259 181.297 71.6926 182.78 70.7695 184.515C69.6238 187.039 61.5264 180.079 61.6041 175.138C61.6041 175.138 62.876 170.177 64.6139 169.867L64.7013 172.245Z" fill="#263238"/>
<path d="M74.6543 180.195C74.6543 180.195 77.1496 178.962 76.0233 174.817V170.857L77.1204 171.003C78.4021 172.247 79.313 173.823 79.7516 175.555C79.9943 176.691 80.6157 182.428 79.5186 183.573C78.4215 184.719 76.8874 180.506 74.6543 180.195Z" fill="#263238"/>
<path d="M68.5654 146.142C68.2783 146.08 67.9796 146.097 67.7013 146.191C66.7303 146.618 66.5653 149.55 66.4002 150.394C65.8371 153.238 65.4293 158.063 64.303 158.082C63.9826 158.082 62.769 155.995 61.9826 155.248C60.8951 154.209 62.303 144.832 62.303 144.832C62.0171 144.021 61.9648 143.146 62.1519 142.307C62.339 141.468 62.758 140.698 63.3613 140.085C65.3031 137.833 68.4197 137.328 71.2451 137.173C74.5754 136.988 77.9541 137.241 81.2358 136.513C82.267 136.227 83.3142 136.004 84.3719 135.843C84.4164 135.824 84.4643 135.814 84.5127 135.814C84.5611 135.814 84.609 135.824 84.6535 135.843C84.6984 135.896 84.7285 135.96 84.7404 136.028C84.7524 136.096 84.7458 136.166 84.7214 136.231C84.5168 137.216 84.1666 138.165 83.6826 139.046C85.6361 138.892 87.565 138.511 89.4304 137.911C89.5379 137.877 89.653 137.877 89.7605 137.911C89.9838 137.979 90.0226 138.27 90.0032 138.503C89.877 140.852 88.7605 144.405 86.8477 145.783C85.155 146.891 83.1901 147.513 81.1679 147.579C76.0123 147.773 72.818 146.686 68.5654 146.142Z" fill="#263238"/>
<path d="M62.302 145.366L58.4766 143.23C58.5926 142.965 58.763 142.727 58.9767 142.532C59.1904 142.337 59.4426 142.189 59.7172 142.098C59.9917 142.006 60.2824 141.973 60.5704 142.001C60.8585 142.029 61.1374 142.117 61.3893 142.26C61.8972 142.574 62.2711 143.065 62.4395 143.638C62.6079 144.211 62.5589 144.827 62.302 145.366Z" fill="#263238"/>
<path d="M76.0117 170.857C76.0117 170.857 70.3318 169.663 68.3414 168.566C67.1623 167.918 66.2051 166.93 65.5938 165.732C65.8899 166.937 66.4211 168.071 67.1569 169.071C68.6133 171.012 76.0117 172.43 76.0117 172.43V170.857Z" fill="#F28F8F"/>
<path d="M74.6525 155.539C74.6336 155.76 74.5508 155.972 74.414 156.147C74.2772 156.322 74.0924 156.453 73.8821 156.526C73.6718 156.598 73.4451 156.607 73.2297 156.552C73.0142 156.498 72.8192 156.382 72.6686 156.218C72.5179 156.055 72.418 155.851 72.3811 155.632C72.3442 155.413 72.3719 155.188 72.4607 154.984C72.5496 154.78 72.6958 154.607 72.8815 154.485C73.0673 154.363 73.2845 154.297 73.5068 154.296C73.6641 154.301 73.8188 154.338 73.9619 154.403C74.105 154.468 74.2337 154.562 74.3403 154.677C74.447 154.793 74.5295 154.929 74.5831 155.077C74.6367 155.225 74.6603 155.382 74.6525 155.539Z" fill="#263238"/>
<path d="M72.8183 150.627L70.3813 152.025C70.2107 151.682 70.1729 151.288 70.275 150.919C70.3772 150.55 70.6121 150.232 70.9347 150.025C71.0953 149.93 71.2744 149.869 71.4601 149.848C71.6458 149.827 71.834 149.845 72.012 149.902C72.1901 149.959 72.354 150.053 72.493 150.178C72.632 150.303 72.7429 150.456 72.8183 150.627Z" fill="#263238"/>
<path d="M75.4985 163.732L78.1005 164.703C78.0503 164.882 77.9635 165.049 77.8455 165.194C77.7275 165.338 77.5808 165.456 77.4148 165.541C77.2488 165.626 77.067 165.675 76.8809 165.686C76.6948 165.697 76.5084 165.67 76.3334 165.605C75.9875 165.451 75.7108 165.175 75.5566 164.829C75.4025 164.483 75.3818 164.092 75.4985 163.732Z" fill="#F28F8F"/>
<path d="M85.1003 151.666L82.877 149.88C82.9772 149.723 83.1095 149.59 83.2652 149.488C83.4209 149.387 83.5964 149.32 83.78 149.291C83.9636 149.263 84.1512 149.274 84.3303 149.323C84.5094 149.373 84.6759 149.46 84.8188 149.579C85.1156 149.83 85.3086 150.183 85.3606 150.568C85.4126 150.954 85.3199 151.345 85.1003 151.666Z" fill="#263238"/>
<path d="M84.129 155.199C84.1102 155.421 84.0273 155.632 83.8906 155.807C83.7538 155.982 83.569 156.114 83.3587 156.186C83.1484 156.258 82.9217 156.267 82.7062 156.213C82.4907 156.158 82.2958 156.042 82.1451 155.878C81.9945 155.715 81.8946 155.511 81.8577 155.292C81.8208 155.073 81.8485 154.848 81.9373 154.644C82.0262 154.441 82.1724 154.267 82.3581 154.145C82.5438 154.023 82.7611 153.957 82.9834 153.957C83.2984 153.974 83.5942 154.114 83.8081 154.346C84.022 154.578 84.1371 154.884 84.129 155.199Z" fill="#263238"/>
<path d="M78.0332 154.248L78.1594 161.441L82.247 160.509L78.0332 154.248Z" fill="#F28F8F"/>
<path d="M46.5752 161.48C44.9343 159.305 41.6138 164.13 40.0798 167.459C38.5457 170.789 38.5263 172.672 39.7788 173.992C41.0313 175.313 43.4197 174.517 45.7985 171.362C48.1772 168.207 47.517 163.081 46.5752 161.48Z" fill="#27DEBF"/>
<path opacity="0.5" d="M46.5752 161.48C44.9343 159.305 41.6138 164.13 40.0798 167.459C38.5457 170.789 38.5263 172.672 39.7788 173.992C41.0313 175.313 43.4197 174.517 45.7985 171.362C48.1772 168.207 47.517 163.081 46.5752 161.48Z" fill="black"/>
<path d="M35.0107 162.12C40.8362 175.711 48.9434 183.37 52.5843 192.116C57.3612 191.795 61.0701 180.273 57.5166 175.351C57.5166 175.351 43.5548 160.237 42.2926 154.296C41.1663 149.025 39.6614 140.328 39.7876 135.853C39.8376 135.124 40.1437 134.436 40.6518 133.911C42.1178 132.329 42.1178 131.067 43.0596 129.329C43.7975 127.97 44.5937 127.466 44.3704 127.155C44.0685 126.832 43.6561 126.635 43.2152 126.602C42.7743 126.57 42.3374 126.705 41.9916 126.98C41.3216 127.459 40.7205 128.027 40.2051 128.669C40.0257 126.924 40.3104 125.163 41.0304 123.563C42.6518 119.894 42.2635 118.03 37.3118 119.331C34.2049 120.146 32.263 122.738 31.797 130.184C31.5812 133.282 31.5618 136.392 31.7387 139.493C32.2825 145.23 32.6223 151.21 33.331 155.995C33.6274 158.1 34.1919 160.159 35.0107 162.12Z" fill="#FFA8A7"/>
<path d="M58.9531 175.516L46.6613 161.441C46.6613 161.441 48.1177 164.868 44.9137 169.867C41.7096 174.866 39.8066 173.992 39.8066 173.992C39.8066 173.992 47.0788 184.602 49.0304 188.155C50.9819 191.708 52.9723 194.678 52.9723 194.678C53.1844 195.093 53.5164 195.434 53.9251 195.657C54.3337 195.881 54.8001 195.976 55.2636 195.931C57.0793 195.96 61.8659 187.942 58.9531 175.516Z" fill="#27DEBF"/>
<path opacity="0.3" d="M58.9531 175.516L46.6613 161.441C46.6613 161.441 48.1177 164.868 44.9137 169.867C41.7096 174.866 39.8066 173.992 39.8066 173.992C39.8066 173.992 47.0788 184.602 49.0304 188.155C50.9819 191.708 52.9723 194.678 52.9723 194.678C53.1844 195.093 53.5164 195.434 53.9251 195.657C54.3337 195.881 54.8001 195.976 55.2636 195.931C57.0793 195.96 61.8659 187.942 58.9531 175.516Z" fill="black"/>
<path d="M158.863 207.152L153.057 214.869L159.29 222.014L167.319 212.627L158.863 207.152Z" fill="#F28F8F"/>
<path d="M177.833 189.602C172.775 189.835 170.367 190.572 167.716 193.737C165.066 196.901 151.822 216.034 151.822 216.034C151.822 216.034 154.162 222.596 159.289 222.033L168.6 212.433L177.833 189.602Z" fill="#455A64"/>
<path d="M202.651 349.887C203.011 351.9 203.205 353.939 203.233 355.983C203.301 359.672 203.981 360.992 204.078 364.021C204.175 367.487 203.573 368.787 202.136 370.729C200.699 372.67 197.029 374.447 195.476 371.156C193.922 367.865 194.116 365.71 194.611 362.303C195.107 358.896 195.194 356.847 195.495 354.168C195.757 351.8 196.068 350.004 196.068 350.004L202.651 349.887Z" fill="#263238"/>
<path d="M192.154 320.872L204.339 320.649C204.155 328.784 202.864 342.316 202.65 349.936C202.65 351.372 202.65 361.089 202.145 364.05C201.329 368.486 196.067 367.884 195.786 365.234C195.504 362.584 196.125 351.227 196.106 350.052C196.154 345.199 193.863 332.405 192.659 323.619C192.601 323.144 192.213 321.241 192.154 320.872Z" fill="#FFBDA7"/>
<path d="M174.261 343.568C174.261 343.568 174.892 343.568 174.989 344.111C175.086 344.655 175.135 345.684 175.387 346.694C175.8 348.276 175.947 349.916 175.824 351.547C175.61 352.683 173.018 354.372 171.241 354.673C169.465 354.974 166.969 356.721 165.581 358.032C163.351 359.872 160.593 360.953 157.707 361.119C154.794 361.119 152.687 360.148 151.716 358.556C150.745 356.964 152.6 356.779 155.988 354.586C156.755 354.091 157.629 353.528 158.61 352.877C163.969 349.383 165.93 347.509 167.445 344.014L174.261 343.568Z" fill="#263238"/>
<path d="M167.397 341.665C167.494 339.141 166.202 320.601 166.202 320.601L176.679 321.785C174.203 336.559 173.999 341.597 174.28 343.752C174.333 343.952 174.356 344.158 174.348 344.364C174.348 347.276 171.096 348.79 168.571 350.703C167.6 351.46 164.998 353.79 161.989 354.809C160.047 355.479 156.445 355.78 155.988 354.547C159.066 352.198 163.251 349.13 165.697 346.441C166.863 345.14 167.309 344.17 167.397 341.665Z" fill="#FFBDA7"/>
<path d="M201.514 236.769C207.223 249.243 201.31 293.207 201.31 293.207C201.475 295.236 203.795 299.216 204.659 308.127C205.679 318.659 202.776 346.859 202.776 346.859C201.755 347.477 200.59 347.816 199.397 347.842C198.204 347.868 197.025 347.579 195.979 347.004C195.979 347.004 188.61 305.574 187.29 295.109C186.134 285.965 183.92 265.871 183.92 265.871L177.639 295.051C178.54 298 179.189 301.02 179.58 304.079C180.173 310.233 174.172 341.151 174.172 341.151C173.091 341.597 171.93 341.815 170.76 341.792C169.591 341.769 168.439 341.504 167.376 341.015C167.376 341.015 164.745 301.079 164.143 293.692C163.172 281.238 166.522 242.36 168.813 234.983L201.514 236.769Z" fill="#27DEBF"/>
<path opacity="0.5" d="M201.514 236.769C207.223 249.243 201.31 293.207 201.31 293.207C201.475 295.236 203.795 299.216 204.659 308.127C205.679 318.659 202.776 346.859 202.776 346.859C201.755 347.477 200.59 347.816 199.397 347.842C198.204 347.868 197.025 347.579 195.979 347.004C195.979 347.004 188.61 305.574 187.29 295.109C186.134 285.965 183.92 265.871 183.92 265.871L177.639 295.051C178.54 298 179.189 301.02 179.58 304.079C180.173 310.233 174.172 341.151 174.172 341.151C173.091 341.597 171.93 341.815 170.76 341.792C169.591 341.769 168.439 341.504 167.376 341.015C167.376 341.015 164.745 301.079 164.143 293.692C163.172 281.238 166.522 242.36 168.813 234.983L201.514 236.769Z" fill="black"/>
<path opacity="0.2" d="M183.892 265.871L182.037 254.281C182.037 254.281 174.192 252.66 170.629 249.311C173.086 252.192 176.302 254.327 179.911 255.475L181.998 264.405L178.357 291.421L183.892 265.871Z" fill="black"/>
<path d="M198.582 198.008L190.814 200.027V183.593C195.106 182.476 198.582 184.952 198.582 189.126V198.008Z" fill="#27DEBF"/>
<path opacity="0.6" d="M198.582 198.008L190.814 200.027V183.593C195.106 182.476 198.582 184.952 198.582 189.126V198.008Z" fill="black"/>
<path d="M183.203 185.942L185.99 185.884C194.495 185.68 201.233 178.351 201.049 169.498C201.097 159.849 193.573 152.025 184.31 151.937C175.048 151.889 167.494 159.703 167.445 169.313V170.284C167.678 179.147 174.717 186.126 183.203 185.942Z" fill="#27DEBF"/>
<path opacity="0.6" d="M183.203 185.942L185.99 185.884C194.495 185.68 201.233 178.351 201.049 169.498C201.097 159.849 193.573 152.025 184.31 151.937C175.048 151.889 167.494 159.703 167.445 169.313V170.284C167.678 179.147 174.717 186.126 183.203 185.942Z" fill="black"/>
<path d="M196.184 155.966C196.252 155.684 196.377 155.42 196.551 155.189C196.726 154.958 196.946 154.765 197.199 154.623C197.451 154.481 197.73 154.392 198.018 154.363C198.306 154.333 198.598 154.364 198.873 154.452L198.126 157.364C198.346 157.088 198.634 156.874 198.961 156.742C199.288 156.61 199.644 156.564 199.994 156.609C200.344 156.654 200.677 156.788 200.96 156.998C201.243 157.209 201.467 157.488 201.611 157.81L197.825 160.033C197.632 159.652 197.545 159.227 197.572 158.8C197.037 158.576 196.601 158.165 196.346 157.644C196.091 157.123 196.033 156.526 196.184 155.966Z" fill="#27DEBF"/>
<path opacity="0.6" d="M196.184 155.966C196.252 155.684 196.377 155.42 196.551 155.189C196.726 154.958 196.946 154.765 197.199 154.623C197.451 154.481 197.73 154.392 198.018 154.363C198.306 154.333 198.598 154.364 198.873 154.452L198.126 157.364C198.346 157.088 198.634 156.874 198.961 156.742C199.288 156.61 199.644 156.564 199.994 156.609C200.344 156.654 200.677 156.788 200.96 156.998C201.243 157.209 201.467 157.488 201.611 157.81L197.825 160.033C197.632 159.652 197.545 159.227 197.572 158.8C197.037 158.576 196.601 158.165 196.346 157.644C196.091 157.123 196.033 156.526 196.184 155.966Z" fill="black"/>
<path d="M191.63 190.271C194.245 190.626 196.838 191.125 199.397 191.766C196.387 199.144 201.106 210.54 201.106 210.54L196.65 224.256C199.727 230.556 202.261 233.682 203.31 238.817C200.475 244.35 180.464 249.631 167.435 239.545C167.435 239.545 167.862 225.538 169.512 217.374C165.25 209.055 165.949 206.609 166.813 203.706C168.843 196.96 172.94 194.368 177.823 189.611L180.736 189.301L191.63 190.271Z" fill="#37474F"/>
<path d="M196.184 229.751C193.766 227.275 188.65 226.567 188.65 226.567L193.349 223.887L198.621 211.171C196.413 206.846 195.324 202.037 195.456 197.183L198.475 196.455C198.106 203.182 201.155 210.54 201.155 210.54L196.699 224.256C199.776 230.556 202.32 233.682 203.359 238.817C201.417 242.603 191.427 246.272 181.145 244.972C194.883 244.049 198.475 232.148 196.184 229.751Z" fill="#263238"/>
<path d="M182.221 245.088L181.658 245.03C181.847 245.033 182.036 245.053 182.221 245.088Z" fill="#E6E6E6"/>
<path d="M173.707 160.538C172.027 162.072 169.94 165.392 170.105 175.099C170.251 183.35 172.804 185.398 174.095 185.99C175.387 186.583 177.863 186.243 180.29 185.835V189.252C180.29 189.252 177.096 192.786 177.299 195.076C177.503 197.367 181.834 198.29 184.97 196.047C187.179 194.374 189.14 192.397 190.795 190.174V179.797C190.795 179.797 192.213 181.244 194.679 179.069C196.679 177.264 197.359 174.216 195.815 172.565C195.418 172.175 194.932 171.887 194.399 171.728C193.865 171.569 193.301 171.544 192.756 171.654C192.21 171.765 191.7 172.007 191.27 172.361C190.84 172.714 190.504 173.168 190.29 173.682C186.6 173.291 183.007 172.253 179.678 170.614C177.795 169.716 176.222 168.279 175.159 166.484C174.096 164.69 173.59 162.62 173.707 160.538Z" fill="#FFBDA7"/>
<path d="M180.289 173.245C180.29 173.433 180.345 173.618 180.449 173.775C180.552 173.933 180.7 174.057 180.873 174.132C181.046 174.207 181.237 174.23 181.423 174.199C181.609 174.167 181.781 174.082 181.92 173.954C182.058 173.826 182.156 173.66 182.202 173.477C182.248 173.294 182.239 173.102 182.177 172.924C182.116 172.746 182.003 172.59 181.854 172.474C181.705 172.359 181.526 172.289 181.338 172.274C181.072 172.271 180.815 172.37 180.62 172.551C180.425 172.731 180.306 172.98 180.289 173.245Z" fill="#263238"/>
<path d="M179.92 180.118L177.328 180.962C177.368 181.139 177.444 181.305 177.552 181.451C177.659 181.597 177.795 181.719 177.952 181.81C178.109 181.902 178.282 181.959 178.462 181.98C178.642 182.001 178.825 181.985 178.998 181.933C179.351 181.801 179.642 181.541 179.813 181.205C179.984 180.869 180.022 180.481 179.92 180.118Z" fill="#F79776"/>
<path d="M170.941 169.527L173.29 168.721C173.254 168.564 173.186 168.416 173.089 168.288C172.992 168.159 172.868 168.052 172.727 167.974C172.586 167.897 172.43 167.849 172.27 167.836C172.109 167.822 171.947 167.843 171.795 167.896C171.474 168.011 171.208 168.243 171.05 168.545C170.891 168.847 170.853 169.197 170.941 169.527Z" fill="#263238"/>
<path d="M190.28 172.76V176.244C190.057 176.254 189.834 176.217 189.625 176.137C189.417 176.057 189.227 175.935 189.068 175.778C188.909 175.622 188.783 175.434 188.699 175.227C188.615 175.02 188.575 174.798 188.581 174.575C188.572 174.111 188.745 173.662 189.062 173.323C189.38 172.984 189.816 172.782 190.28 172.76Z" fill="#27DEBF"/>
<path opacity="0.6" d="M190.28 172.76V176.244C190.057 176.254 189.834 176.217 189.625 176.137C189.417 176.057 189.227 175.935 189.068 175.778C188.909 175.622 188.783 175.434 188.699 175.227C188.615 175.02 188.575 174.798 188.581 174.575C188.572 174.111 188.745 173.662 189.062 173.323C189.38 172.984 189.816 172.782 190.28 172.76Z" fill="black"/>
<path d="M171.765 172.905C171.743 173.184 171.834 173.461 172.016 173.674C172.198 173.886 172.457 174.019 172.736 174.041C172.95 174.062 173.165 174.018 173.354 173.916C173.543 173.814 173.697 173.657 173.796 173.467C173.896 173.276 173.936 173.06 173.911 172.847C173.887 172.633 173.8 172.432 173.66 172.268C173.52 172.105 173.335 171.987 173.128 171.93C172.921 171.873 172.701 171.879 172.497 171.947C172.294 172.016 172.115 172.143 171.985 172.314C171.854 172.485 171.777 172.691 171.765 172.905Z" fill="#263238"/>
<path d="M177.3 171.498L177.329 178.254L174.174 177.215L177.3 171.498Z" fill="#F79776"/>
<path d="M180.291 185.874C182.835 185.544 188.058 184 188.913 181.845C188.584 182.926 187.938 183.884 187.058 184.593C185.485 185.981 180.262 187.505 180.262 187.505L180.291 185.874Z" fill="#F79776"/>
<path d="M211.348 224.771C211.348 224.771 205.115 233.624 204.047 234.779C202.979 235.934 202.251 235.546 201.134 235.031C199.726 234.461 198.279 233.991 196.804 233.624C194.862 233.148 194.493 234.905 196.377 236.157C197.746 237.07 199.29 237.458 198.649 238.206C197.32 239.408 195.779 240.353 194.105 240.992C189.503 242.807 189.862 243.719 190.707 245.204C191.445 246.505 193.62 249.301 201.824 246C205.212 244.632 209.999 240.759 212.251 238.235C215.504 234.633 220.572 228.178 220.572 228.178L211.348 224.771Z" fill="#FFBDA7"/>
<path d="M198.203 191.446C200.465 191.592 204.698 192.135 210.019 200.969C214.689 208.734 221.922 219.228 223.262 222.985C223.806 224.509 221.689 227.664 218.961 230.896C215.242 230.731 211.854 228.159 210.096 226.101C210.563 225.007 211.138 223.963 211.815 222.985L200.892 210.54C200.892 210.54 196.746 206.745 195.882 201.804C194.95 196.445 195.212 192.232 198.203 191.446Z" fill="#455A64"/>
<path d="M137.104 208.201L164.017 215.287L171.416 245.729L145.842 238.303L137.104 208.201Z" fill="#27DEBF"/>
<path opacity="0.25" d="M137.104 208.201L164.017 215.287L171.416 245.729L145.842 238.303L137.104 208.201Z" fill="black"/>
<g opacity="0.1">
<path opacity="0.1" d="M149.259 229.751C148.808 230.69 148.091 231.477 147.197 232.012C146.303 232.547 145.271 232.807 144.229 232.76L144.035 232.09L149.259 229.751Z" fill="black"/>
</g>
<g opacity="0.1">
<path opacity="0.1" d="M145.21 213.035L144.987 212.006C144.87 211.443 146.443 211.414 148.511 212.006L152.482 212.976C154.55 213.52 156.366 214.413 156.453 214.976L156.676 216.005L145.21 213.035Z" fill="black"/>
</g>
<path d="M143.143 209.181C143.065 208.822 143.706 208.725 144.57 208.967L146.143 209.404C146.143 209.404 145.677 207.181 149.163 207.958C150.094 208.097 150.974 208.474 151.717 209.052C152.46 209.63 153.042 210.39 153.406 211.258L155.085 211.734C155.82 211.872 156.483 212.264 156.959 212.841L157.153 213.481L143.289 209.831L143.143 209.181Z" fill="#37474F"/>
<path d="M145.056 210.268C146.328 210.579 146.852 210.744 146.998 211.617C147.144 212.491 147.299 213.345 147.299 213.345L153.464 214.966C153.464 214.966 153.163 213.705 153.076 213.209C152.988 212.714 153.183 212.423 154.163 212.685L154.241 212.297L144.629 209.841L145.056 210.268Z" fill="#37474F"/>
<path d="M144.841 213.122L144.617 212.093C144.501 211.53 146.074 211.501 148.142 212.035L152.113 213.064C154.181 213.608 155.997 214.501 156.084 215.064L156.307 216.093L144.841 213.122Z" fill="#37474F"/>
<path d="M139.939 217.976C139.939 217.976 140.91 221.422 141.182 222.237C141.454 223.053 144.425 224.538 146.405 225.081C148.386 225.625 150.542 226.266 149.609 229.032C148.745 231.585 145.493 232.168 143.833 232.09C142.172 232.012 139.949 230.44 138.978 227.887C137.832 224.625 138.444 221.15 138.007 219.247C137.57 217.345 138.949 216.84 139.939 217.976Z" fill="#FFBDA7"/>
<path d="M241.817 218.782C245.507 215.064 246.827 216.51 247.293 220.587C247.466 222.297 247.881 223.974 248.526 225.567C248.641 224.72 248.873 223.894 249.216 223.111C249.378 222.688 249.694 222.341 250.101 222.141C250.508 221.942 250.976 221.903 251.41 222.034C251.769 222.179 251.323 223.004 251.41 224.625C251.478 226.644 252.138 227.761 251.663 229.906C251.497 230.713 251.624 231.553 252.022 232.275C254.012 235.963 260.372 242.778 264.848 247.69C268.799 244.117 277.654 236.119 281.897 232.304C287.722 227.062 289.606 224.703 295.228 225.082C293.465 225.747 291.842 226.735 290.441 227.994C287.839 230.197 288.499 242.807 288.499 242.807C288.499 242.807 269.149 256.669 267.139 257.989C266.848 258.183 266.556 258.358 266.255 258.523C265.301 259.021 264.206 259.181 263.148 258.978C262.091 258.776 261.133 258.222 260.43 257.407C256.304 252.689 250.284 243.399 246.837 238.575C245.261 236.239 243.856 233.793 242.633 231.255C239.167 224.392 239.546 221.111 241.817 218.782Z" fill="#914F4E"/>
<path d="M294.664 224.771C293.305 224.524 291.91 224.569 290.571 224.904C289.231 225.239 287.979 225.855 286.896 226.712C283.586 229.236 269.42 242.244 269.42 242.244C269.459 244.516 270.111 246.736 271.307 248.668C272.504 250.601 274.2 252.174 276.216 253.223L293.576 240.992L294.664 224.771Z" fill="#27DEBF"/>
<path opacity="0.3" d="M294.664 224.771C293.305 224.524 291.91 224.569 290.571 224.904C289.231 225.239 287.979 225.855 286.896 226.712C283.586 229.236 269.42 242.244 269.42 242.244C269.459 244.516 270.111 246.736 271.307 248.668C272.504 250.601 274.2 252.174 276.216 253.223L293.576 240.992L294.664 224.771Z" fill="black"/>
<path d="M318.754 380.048H311.404V393.152H318.754V380.048Z" fill="#914F4E"/>
<path d="M293.266 379.349L285.916 379.611L285.547 365.739L293.266 365.477V379.349Z" fill="#914F4E"/>
<path d="M319.793 266.58C319.793 273.889 318.715 332.725 318.715 332.725C318.89 334.822 320.783 338.705 320.365 346.781C319.812 357.76 319.074 386.581 319.074 386.581C317.812 387.227 316.419 387.578 315.001 387.606C313.583 387.635 312.177 387.341 310.889 386.746C310.889 386.746 303.928 346.8 302.617 335.928C301.462 326.435 299.51 294.478 299.51 294.478L295.529 331.638C296.378 335.633 296.685 339.724 296.442 343.801C296.093 348.829 293.733 375.029 293.733 375.029C292.463 375.779 291.039 376.23 289.569 376.348C288.098 376.466 286.621 376.247 285.247 375.708C285.247 375.708 281.063 336.249 280.975 331.638C280.878 326.376 283.422 266.483 283.422 266.483L319.793 266.58Z" fill="#37474F"/>
<path d="M311.403 389.367V388.279C310.704 388.6 309.064 395.074 306.151 397.86C303.83 400.064 300.665 402.607 299.859 405.063C299.053 407.519 304.267 409.024 306.432 408.626C308.947 408.16 313.316 406.315 314.413 404.607C315.51 402.898 316.015 400.365 316.909 399.113C317.802 397.86 319.821 396.463 320.326 395.006C320.598 394.21 320.278 392.463 319.909 390.988C319.54 389.512 319.2 388.153 318.753 388.279V389.114C317.719 389.962 316.42 390.419 315.083 390.405C314.006 390.444 311.394 390.221 311.403 389.367Z" fill="#263238"/>
<path d="M285.84 377.252C285.461 377.252 285.15 377.825 284.306 378.776C283.057 380.089 281.597 381.182 279.985 382.009C277.228 383.445 271.878 385.659 269.46 386.794C267.946 387.503 268.014 389.406 269.577 390.483C271.14 391.561 274.917 392.347 279.451 391.298C281.927 390.716 285.141 388.386 287.17 388.474C289.199 388.561 292.995 388.571 294.52 387.503C296.044 386.435 295.423 384.115 294.995 382.145C294.529 379.98 293.957 376.611 293.267 376.757V377.504C292.384 378.902 287.82 379.446 285.878 378.475L285.84 377.252Z" fill="#263238"/>
<path d="M299.509 294.498C295.684 293.249 292.187 291.159 289.275 288.382C289.275 288.382 291.217 292.265 297.12 295.818L295.868 329.007L299.509 294.498Z" fill="#263238"/>
<path d="M315.966 226.712C315.966 226.712 321.714 227.237 321.306 238.196L320.034 255.669L320.16 281.879C314.752 288.004 290.79 287.557 282.576 281.383C282.576 281.383 283.421 250.388 283.984 238.458C284.372 229.984 286.324 225.713 294.664 224.781L304.907 225.227L315.966 226.712Z" fill="#27DEBF"/>
<path opacity="0.3" d="M299.625 232.459L298.304 241.661L295.236 241.603L298.702 242.157L299.625 232.459Z" fill="black"/>
<path d="M334.211 264.338C331.23 240.361 324.365 228.421 316.006 227.042L316.598 242.38C320.084 250.558 322.751 259.061 324.56 267.764C325.657 273.666 326.929 283.927 326.599 288.965C326.537 289.854 326.158 290.691 325.531 291.324C323.89 293.003 323.385 294.459 322.278 296.352C321.414 297.837 320.511 298.361 320.744 298.721C321.044 299.098 321.48 299.344 321.959 299.406C322.437 299.467 322.921 299.34 323.307 299.051C324.187 298.435 324.989 297.715 325.696 296.905C325.802 299.191 325.39 301.47 324.492 303.574C322.55 307.612 322.861 309.738 328.278 308.544C331.676 307.806 334.104 304.225 335.075 295.867C335.33 292.748 335.385 289.615 335.24 286.489C334.871 278.5 334.813 269.133 334.211 264.338Z" fill="#914F4E"/>
<path d="M315.53 226.644C319.87 226.644 323.831 227.392 326.987 233.439C330.006 239.264 332.327 251.582 333.501 255.611C333.501 255.611 327.161 259.358 321.326 259.261L317.219 245.01C317.219 245.01 314.442 238.361 315.53 226.644Z" fill="#27DEBF"/>
<path opacity="0.3" d="M315.53 226.644C319.87 226.644 323.831 227.392 326.987 233.439C330.006 239.264 332.327 251.582 333.501 255.611C333.501 255.611 327.161 259.358 321.326 259.261L317.219 245.01C317.219 245.01 314.442 238.361 315.53 226.644Z" fill="black"/>
<path d="M306.567 201.969C306.479 204.113 305.763 206.185 304.507 207.926C303.251 209.668 301.511 211.001 299.503 211.762C297.495 212.522 295.308 212.676 293.214 212.203C291.119 211.731 289.21 210.654 287.723 209.105C286.236 207.556 285.237 205.605 284.851 203.493C284.464 201.382 284.707 199.203 285.549 197.228C286.391 195.254 287.795 193.57 289.586 192.386C291.378 191.203 293.477 190.572 295.624 190.572C298.587 190.633 301.404 191.868 303.456 194.005C305.507 196.142 306.627 199.007 306.567 201.969Z" fill="#263238"/>
<path d="M313.529 207.667C313.529 207.667 311.859 215.879 311.179 217.228C310.745 218.053 310.007 218.676 309.121 218.966L309.238 213.142L313.529 207.667Z" fill="#263238"/>
<path d="M311.422 195.902C311.422 195.902 312.626 195.601 313.907 197.6C315.004 199.309 315.257 203.153 313.529 207.667L310.373 208.045L311.422 195.902Z" fill="#263238"/>
<path d="M309.423 208.045C310.054 208.443 310.966 207.172 311.743 206.327C312.52 205.483 315.083 204.308 316.355 207.104C317.627 209.899 315.229 213.714 313.219 214.365C309.753 215.501 309.238 213.18 309.238 213.18L308.966 226.198C304.374 233.304 293.956 233.051 297.704 225.848V221.859C296.161 222.115 294.595 222.2 293.034 222.111C290.49 221.703 288.888 219.607 288.111 216.733C286.868 212.122 286.402 208.405 287.451 199.338C288.606 189.398 299.714 189.291 305.704 193.222C311.695 197.154 309.423 208.045 309.423 208.045Z" fill="#914F4E"/>
<path d="M309.034 223.276C307.96 225.461 306.423 227.386 304.529 228.916C302.92 230.104 301.054 230.899 299.082 231.236C300.708 232.336 302.041 233.815 302.966 235.546C304.111 238.079 312.199 231.119 312.121 226.178C312.121 226.178 310.859 221.218 309.121 220.898L309.034 223.276Z" fill="#263238"/>
<path d="M299.102 231.236C299.102 231.236 296.606 229.993 297.723 225.848V221.859L296.626 222.004C295.347 223.25 294.44 224.826 294.004 226.557C293.752 227.693 293.14 233.439 294.228 234.575C295.315 235.711 296.839 231.566 299.102 231.236Z" fill="#263238"/>
<path d="M309.422 209.162C309.743 209.162 310.956 207.075 311.743 206.327C312.84 205.288 311.422 195.902 311.422 195.902C311.712 195.092 311.767 194.217 311.581 193.377C311.396 192.538 310.977 191.767 310.374 191.155C308.869 189.437 306.374 189.213 302.092 188.553C300.387 188.341 298.695 188.037 297.024 187.641C295.262 186.974 293.565 186.145 291.956 185.165C291.451 184.836 290.844 184.698 290.247 184.777C289.972 184.871 289.727 185.035 289.536 185.253C289.345 185.471 289.215 185.735 289.159 186.02C289.057 186.588 289.057 187.17 289.159 187.738C288.619 187.236 287.902 186.968 287.165 186.993C286.428 187.019 285.731 187.335 285.227 187.874C284.752 188.443 284.443 189.131 284.333 189.864C284.224 190.597 284.318 191.346 284.606 192.028C285.226 193.387 286.241 194.526 287.518 195.3C292.888 198.93 299.228 197.921 305.247 197.241C305.532 197.177 305.829 197.198 306.102 197.299C307.073 197.727 307.247 200.648 307.412 201.493C307.888 204.308 308.354 209.142 309.422 209.162Z" fill="#263238"/>
<path d="M311.422 196.397L315.257 194.251C315.14 193.987 314.969 193.751 314.755 193.556C314.541 193.362 314.289 193.215 314.015 193.123C313.741 193.032 313.451 192.999 313.163 193.026C312.875 193.053 312.597 193.14 312.344 193.281C311.834 193.596 311.458 194.088 311.288 194.662C311.118 195.237 311.165 195.855 311.422 196.397Z" fill="#263238"/>
<path d="M297.713 221.859C297.713 221.859 303.402 220.665 305.383 219.568C306.565 218.922 307.523 217.934 308.131 216.733C307.835 217.938 307.304 219.073 306.568 220.073C305.121 222.014 297.713 223.441 297.713 223.441V221.859Z" fill="#783736"/>
<path d="M299.772 206.23C299.766 206.386 299.79 206.541 299.844 206.687C299.897 206.833 299.979 206.968 300.085 207.082C300.19 207.197 300.317 207.289 300.459 207.354C300.6 207.42 300.753 207.457 300.908 207.463C301.224 207.448 301.522 207.309 301.736 207.076C301.95 206.844 302.065 206.536 302.054 206.22C302.069 206.062 302.05 205.902 301.999 205.751C301.949 205.6 301.867 205.461 301.76 205.343C301.652 205.226 301.522 205.132 301.376 205.067C301.23 205.003 301.073 204.97 300.913 204.97C300.754 204.97 300.596 205.003 300.451 205.067C300.305 205.132 300.174 205.226 300.067 205.343C299.959 205.461 299.878 205.6 299.827 205.751C299.776 205.902 299.758 206.062 299.772 206.22V206.23Z" fill="#263238"/>
<path d="M301.723 201.299L304.16 202.697C304.335 202.351 304.374 201.951 304.27 201.578C304.166 201.204 303.926 200.883 303.597 200.677C303.434 200.587 303.255 200.532 303.07 200.514C302.886 200.497 302.699 200.518 302.523 200.576C302.347 200.635 302.185 200.729 302.047 200.854C301.909 200.978 301.799 201.129 301.723 201.299Z" fill="#263238"/>
<path d="M298.227 214.763L295.625 215.782C295.676 215.961 295.764 216.127 295.882 216.27C296.001 216.413 296.148 216.53 296.313 216.614C296.479 216.698 296.661 216.747 296.846 216.757C297.032 216.768 297.218 216.74 297.392 216.675C297.748 216.522 298.033 216.239 298.188 215.884C298.343 215.529 298.357 215.128 298.227 214.763Z" fill="#783736"/>
<path d="M288.422 202.658L290.975 201.415C290.912 201.242 290.813 201.083 290.685 200.95C290.557 200.818 290.402 200.713 290.23 200.645C290.059 200.576 289.875 200.544 289.69 200.552C289.506 200.559 289.325 200.605 289.159 200.687C288.815 200.867 288.549 201.167 288.412 201.531C288.276 201.895 288.279 202.296 288.422 202.658Z" fill="#263238"/>
<path d="M290.081 206.23C290.1 206.45 290.182 206.659 290.318 206.833C290.454 207.006 290.637 207.136 290.845 207.208C291.054 207.279 291.279 207.288 291.492 207.234C291.706 207.18 291.899 207.065 292.048 206.903C292.198 206.741 292.297 206.539 292.333 206.321C292.37 206.104 292.342 205.881 292.254 205.679C292.166 205.477 292.021 205.305 291.837 205.184C291.653 205.063 291.437 204.998 291.217 204.997C291.061 205.004 290.909 205.04 290.767 205.106C290.626 205.171 290.499 205.264 290.393 205.378C290.288 205.493 290.206 205.627 290.152 205.773C290.099 205.919 290.075 206.075 290.081 206.23Z" fill="#263238"/>
<path d="M296.528 205.356L296.402 212.549L292.314 211.608L296.528 205.356Z" fill="#783736"/>
<path d="M301.044 203.26C300.289 203.26 299.566 203.559 299.032 204.093C298.499 204.626 298.199 205.35 298.199 206.104C298.199 206.858 298.499 207.582 299.032 208.115C299.566 208.648 300.289 208.948 301.044 208.948H301.559C302.313 208.948 303.037 208.648 303.57 208.115C304.104 207.582 304.403 206.858 304.403 206.104C304.403 205.35 304.104 204.626 303.57 204.093C303.037 203.559 302.313 203.26 301.559 203.26H301.044ZM301.559 209.521H301.044C300.219 209.413 299.462 209.008 298.914 208.383C298.365 207.758 298.062 206.955 298.062 206.123C298.062 205.292 298.365 204.488 298.914 203.863C299.462 203.238 300.219 202.834 301.044 202.726H301.559C302.383 202.834 303.14 203.238 303.689 203.863C304.238 204.488 304.54 205.292 304.54 206.123C304.54 206.955 304.238 207.758 303.689 208.383C303.14 209.008 302.383 209.413 301.559 209.521Z" fill="#263238"/>
<path d="M290.771 203.26C290.016 203.26 289.292 203.559 288.759 204.093C288.225 204.626 287.926 205.35 287.926 206.104C287.926 206.858 288.225 207.582 288.759 208.115C289.292 208.648 290.016 208.948 290.771 208.948H291.334C292.088 208.948 292.812 208.648 293.345 208.115C293.879 207.582 294.178 206.858 294.178 206.104C294.178 205.35 293.879 204.626 293.345 204.093C292.812 203.559 292.088 203.26 291.334 203.26H290.771ZM291.285 209.521H290.771C289.946 209.413 289.189 209.008 288.64 208.383C288.092 207.758 287.789 206.955 287.789 206.123C287.789 205.292 288.092 204.488 288.64 203.863C289.189 203.238 289.946 202.834 290.771 202.726H291.334C292.158 202.834 292.915 203.238 293.464 203.863C294.013 204.488 294.315 205.292 294.315 206.123C294.315 206.955 294.013 207.758 293.464 208.383C292.915 209.008 292.158 209.413 291.334 209.521H291.285Z" fill="#263238"/>
<path d="M297.693 205.424C297.492 205.143 297.227 204.912 296.92 204.752C296.613 204.592 296.272 204.506 295.926 204.502C295.638 204.47 295.346 204.509 295.076 204.613C294.805 204.718 294.564 204.886 294.372 205.104L293.926 204.755C294.166 204.458 294.476 204.227 294.829 204.083C295.183 203.938 295.566 203.886 295.945 203.929C296.386 203.932 296.82 204.043 297.209 204.251C297.598 204.459 297.931 204.758 298.178 205.123L297.693 205.424Z" fill="#263238"/>
<path d="M310.365 205.405H304.578V205.978H310.365V205.405Z" fill="#263238"/>
</g>
<path d="M147.027 74.4236L147.668 71.1144L143.915 68.8818L141.333 71.0366L139.641 70.0301L149.177 62.3582L150.923 63.3967L148.732 75.4381L147.027 74.4236ZM148.068 69.4797L148.738 66.2602C148.777 66.0412 148.851 65.7032 148.959 65.2464C149.071 64.7922 149.159 64.4623 149.22 64.2566C148.772 64.7353 148.237 65.2322 147.615 65.7472L145.207 67.7782L148.068 69.4797ZM158.151 70.8054C159.078 71.3566 159.599 72.121 159.714 73.0986C159.834 74.0789 159.533 75.1756 158.811 76.3887C158.087 77.6062 157.261 78.3994 156.332 78.7683C155.407 79.1326 154.478 79.0379 153.547 78.4841C152.607 77.9249 152.078 77.1529 151.961 76.1681L151.854 76.1042L151.042 76.8121L149.86 76.1091L156.075 65.6616L157.653 66.6002L156.175 69.0845C156.066 69.268 155.894 69.5357 155.661 69.8876C155.427 70.2396 155.277 70.4621 155.209 70.5553L155.276 70.5952C156.217 70.1548 157.175 70.2249 158.151 70.8054ZM156.975 71.8509C156.339 71.4728 155.768 71.3879 155.263 71.5961C154.764 71.8026 154.249 72.3418 153.719 73.2138L153.655 73.3212C153.117 74.2254 152.87 74.9664 152.914 75.5442C152.961 76.1174 153.309 76.5971 153.958 76.9832C154.518 77.3161 155.072 77.3461 155.622 77.0734C156.177 76.8033 156.703 76.2497 157.201 75.4127C158.205 73.7251 158.13 72.5379 156.975 71.8509ZM167.231 81.3972C166.51 82.6103 165.635 83.372 164.608 83.6822C163.581 83.9925 162.513 83.8175 161.403 83.1571C160.709 82.7444 160.189 82.2229 159.843 81.5927C159.496 80.9625 159.354 80.269 159.417 79.5122C159.479 78.7554 159.741 77.9898 160.201 77.2154C160.917 76.0113 161.786 75.2551 162.805 74.9466C163.825 74.6381 164.897 74.8181 166.02 75.4864C167.095 76.1255 167.739 76.9783 167.953 78.0449C168.169 79.107 167.929 80.2245 167.231 81.3972ZM161.826 78.182C160.806 79.8964 160.93 81.1304 162.197 81.8839C163.45 82.6295 164.586 82.1451 165.606 80.4307C166.615 78.7342 166.489 77.5105 165.227 76.7596C164.564 76.3655 163.952 76.2986 163.392 76.5589C162.835 76.8218 162.313 77.3629 161.826 78.182ZM172.071 89.3215L172.429 88.2161L172.348 88.1682C171.924 88.3824 171.449 88.4668 170.925 88.4214C170.405 88.3787 169.885 88.203 169.366 87.8941C168.466 87.3589 167.928 86.7357 167.751 86.0244C167.574 85.3132 167.756 84.5032 168.297 83.5946L171.184 78.7401L172.776 79.6867L170.052 84.2659C169.714 84.8343 169.576 85.3311 169.638 85.756C169.703 86.1765 169.984 86.5345 170.481 86.83C171.143 87.2241 171.746 87.3161 172.289 87.1059C172.84 86.8939 173.392 86.3224 173.946 85.3913L176.146 81.6917L177.731 82.6343L173.313 90.0604L172.071 89.3215ZM179.008 91.9025C179.393 92.1315 179.814 92.3001 180.271 92.4082L179.564 93.5966C179.344 93.5689 179.081 93.4971 178.774 93.3812C178.469 93.2725 178.169 93.1303 177.873 92.9546C176.378 92.0652 176.099 90.8327 177.036 89.2571L179.417 85.2553L178.403 84.6522L178.818 83.9539L180.25 84.0235L181.721 82.7719L182.695 83.351L181.712 85.0028L183.827 86.2609L183.117 87.4561L181.002 86.1979L178.637 90.1728C178.411 90.5533 178.337 90.8912 178.416 91.1866C178.502 91.4801 178.699 91.7188 179.008 91.9025ZM198.248 91.6031L194.47 97.9549C194.039 98.68 193.504 99.2225 192.866 99.5822C192.235 99.9401 191.536 100.091 190.769 100.035C190.01 99.9771 189.22 99.7045 188.401 99.2173C187.184 98.493 186.429 97.6076 186.136 96.5609C185.844 95.5143 186.033 94.4269 186.704 93.2989L190.466 86.974L192.078 87.9326L188.383 94.1433C187.901 94.9535 187.734 95.663 187.881 96.2716C188.028 96.8802 188.491 97.4162 189.27 97.8795C190.783 98.7795 192.012 98.4349 192.957 96.8459L196.644 90.6485L198.248 91.6031ZM200.999 103.666C200.568 104.391 199.972 104.791 199.212 104.867C198.455 104.937 197.584 104.68 196.599 104.094C195.61 103.506 194.905 102.883 194.483 102.226L195.294 100.863C195.927 101.785 196.62 102.47 197.372 102.917C198.343 103.495 199.004 103.491 199.352 102.905C199.464 102.717 199.504 102.528 199.471 102.339C199.438 102.149 199.338 101.914 199.172 101.634C199.006 101.353 198.754 100.997 198.416 100.566C197.758 99.7262 197.376 99.0501 197.268 98.5378C197.166 98.0282 197.271 97.5093 197.585 96.9811C197.964 96.3455 198.512 96.0048 199.23 95.9592C199.955 95.9118 200.758 96.1504 201.64 96.675C202.513 97.1942 203.234 97.8623 203.802 98.6792L202.585 99.5641C201.981 98.7562 201.405 98.1899 200.859 97.865C200.027 97.3698 199.469 97.3594 199.187 97.8338C199.049 98.0666 199.039 98.3275 199.158 98.6164C199.281 98.908 199.624 99.4119 200.186 100.128C200.658 100.73 200.974 101.212 201.135 101.574C201.295 101.936 201.365 102.287 201.345 102.626C201.328 102.961 201.212 103.308 200.999 103.666Z" fill="#455A64"/>
<defs>
<clipPath id="clip0">
<rect width="437" height="437" fill="white"/>
</clipPath>
</defs>
</svg>
